<mxfile host="app.diagrams.net" modified="2023-09-17T17:16:06.081Z" agent="Mozilla/5.0 (Windows NT 10.0; Win64; x64) AppleWebKit/537.36 (KHTML, like Gecko) Chrome/116.0.0.0 Safari/537.36" etag="oBAbF1WWtCtNObzqnsZH" version="21.7.5" type="github">
  <diagram id="C5RBs43oDa-KdzZeNtuy" name="Page-1">
    <mxGraphModel dx="1944" dy="1408" grid="1" gridSize="10" guides="1" tooltips="1" connect="1" arrows="1" fold="1" page="1" pageScale="1" pageWidth="827" pageHeight="1169" math="0" shadow="0">
      <root>
        <mxCell id="WIyWlLk6GJQsqaUBKTNV-0" />
        <mxCell id="WIyWlLk6GJQsqaUBKTNV-1" parent="WIyWlLk6GJQsqaUBKTNV-0" />
        <mxCell id="m9pRltskA7oe6K08RGxe-0" value="Szükségünk van egy random számra" style="rounded=0;whiteSpace=wrap;html=1;fillColor=#fff2cc;strokeColor=#d6b656;" vertex="1" parent="WIyWlLk6GJQsqaUBKTNV-1">
          <mxGeometry x="309" y="140" width="210" height="60" as="geometry" />
        </mxCell>
        <mxCell id="m9pRltskA7oe6K08RGxe-1" value="START" style="ellipse;whiteSpace=wrap;html=1;fillColor=#d5e8d4;strokeColor=#82b366;" vertex="1" parent="WIyWlLk6GJQsqaUBKTNV-1">
          <mxGeometry x="354" y="30" width="120" height="80" as="geometry" />
        </mxCell>
        <mxCell id="m9pRltskA7oe6K08RGxe-2" value="Milyen nehézségi szinten vagyunk?" style="rhombus;whiteSpace=wrap;html=1;fillColor=#f8cecc;strokeColor=#b85450;" vertex="1" parent="WIyWlLk6GJQsqaUBKTNV-1">
          <mxGeometry x="274" y="230" width="280" height="80" as="geometry" />
        </mxCell>
        <mxCell id="m9pRltskA7oe6K08RGxe-3" value="KÖNNYŰ" style="rounded=0;whiteSpace=wrap;html=1;fillColor=#fff2cc;strokeColor=#d6b656;" vertex="1" parent="WIyWlLk6GJQsqaUBKTNV-1">
          <mxGeometry x="130" y="350" width="80" height="60" as="geometry" />
        </mxCell>
        <mxCell id="m9pRltskA7oe6K08RGxe-4" value="MID&lt;br&gt;" style="rounded=0;whiteSpace=wrap;html=1;fillColor=#fff2cc;strokeColor=#d6b656;" vertex="1" parent="WIyWlLk6GJQsqaUBKTNV-1">
          <mxGeometry x="374" y="390" width="80" height="60" as="geometry" />
        </mxCell>
        <mxCell id="m9pRltskA7oe6K08RGxe-5" value="NEHÉZ" style="rounded=0;whiteSpace=wrap;html=1;fillColor=#fff2cc;strokeColor=#d6b656;" vertex="1" parent="WIyWlLk6GJQsqaUBKTNV-1">
          <mxGeometry x="620" y="350" width="80" height="60" as="geometry" />
        </mxCell>
        <mxCell id="m9pRltskA7oe6K08RGxe-6" value="Intervallum" style="shape=parallelogram;perimeter=parallelogramPerimeter;whiteSpace=wrap;html=1;fixedSize=1;fillColor=#dae8fc;strokeColor=#6c8ebf;" vertex="1" parent="WIyWlLk6GJQsqaUBKTNV-1">
          <mxGeometry x="80" y="490" width="160" height="60" as="geometry" />
        </mxCell>
        <mxCell id="m9pRltskA7oe6K08RGxe-7" value="Intervallum" style="shape=parallelogram;perimeter=parallelogramPerimeter;whiteSpace=wrap;html=1;fixedSize=1;fillColor=#dae8fc;strokeColor=#6c8ebf;" vertex="1" parent="WIyWlLk6GJQsqaUBKTNV-1">
          <mxGeometry x="334" y="570" width="160" height="60" as="geometry" />
        </mxCell>
        <mxCell id="m9pRltskA7oe6K08RGxe-8" value="Intervallum" style="shape=parallelogram;perimeter=parallelogramPerimeter;whiteSpace=wrap;html=1;fixedSize=1;fillColor=#dae8fc;strokeColor=#6c8ebf;" vertex="1" parent="WIyWlLk6GJQsqaUBKTNV-1">
          <mxGeometry x="580" y="490" width="160" height="60" as="geometry" />
        </mxCell>
        <mxCell id="m9pRltskA7oe6K08RGxe-9" value="Számgenerálás a megadott intervallumban" style="rounded=0;whiteSpace=wrap;html=1;fillColor=#ffe6cc;strokeColor=#d79b00;" vertex="1" parent="WIyWlLk6GJQsqaUBKTNV-1">
          <mxGeometry x="304" y="730" width="220" height="60" as="geometry" />
        </mxCell>
        <mxCell id="m9pRltskA7oe6K08RGxe-10" value="" style="endArrow=classic;html=1;rounded=0;entryX=0.5;entryY=0;entryDx=0;entryDy=0;" edge="1" parent="WIyWlLk6GJQsqaUBKTNV-1" target="m9pRltskA7oe6K08RGxe-0">
          <mxGeometry width="50" height="50" relative="1" as="geometry">
            <mxPoint x="414" y="110" as="sourcePoint" />
            <mxPoint x="464" y="60" as="targetPoint" />
          </mxGeometry>
        </mxCell>
        <mxCell id="m9pRltskA7oe6K08RGxe-11" value="" style="endArrow=classic;html=1;rounded=0;exitX=0.5;exitY=1;exitDx=0;exitDy=0;entryX=0.5;entryY=0;entryDx=0;entryDy=0;" edge="1" parent="WIyWlLk6GJQsqaUBKTNV-1" source="m9pRltskA7oe6K08RGxe-0" target="m9pRltskA7oe6K08RGxe-2">
          <mxGeometry width="50" height="50" relative="1" as="geometry">
            <mxPoint x="400" y="270" as="sourcePoint" />
            <mxPoint x="450" y="220" as="targetPoint" />
          </mxGeometry>
        </mxCell>
        <mxCell id="m9pRltskA7oe6K08RGxe-12" value="" style="endArrow=classic;html=1;rounded=0;exitX=0;exitY=1;exitDx=0;exitDy=0;entryX=0.75;entryY=0;entryDx=0;entryDy=0;" edge="1" parent="WIyWlLk6GJQsqaUBKTNV-1" source="m9pRltskA7oe6K08RGxe-2" target="m9pRltskA7oe6K08RGxe-3">
          <mxGeometry width="50" height="50" relative="1" as="geometry">
            <mxPoint x="280" y="370" as="sourcePoint" />
            <mxPoint x="330" y="320" as="targetPoint" />
          </mxGeometry>
        </mxCell>
        <mxCell id="m9pRltskA7oe6K08RGxe-13" value="" style="endArrow=classic;html=1;rounded=0;exitX=0.5;exitY=1;exitDx=0;exitDy=0;entryX=0.5;entryY=0;entryDx=0;entryDy=0;" edge="1" parent="WIyWlLk6GJQsqaUBKTNV-1" source="m9pRltskA7oe6K08RGxe-2" target="m9pRltskA7oe6K08RGxe-4">
          <mxGeometry width="50" height="50" relative="1" as="geometry">
            <mxPoint x="370" y="370" as="sourcePoint" />
            <mxPoint x="420" y="320" as="targetPoint" />
          </mxGeometry>
        </mxCell>
        <mxCell id="m9pRltskA7oe6K08RGxe-14" value="" style="endArrow=classic;html=1;rounded=0;exitX=1;exitY=1;exitDx=0;exitDy=0;entryX=0;entryY=0;entryDx=0;entryDy=0;" edge="1" parent="WIyWlLk6GJQsqaUBKTNV-1" source="m9pRltskA7oe6K08RGxe-2" target="m9pRltskA7oe6K08RGxe-5">
          <mxGeometry width="50" height="50" relative="1" as="geometry">
            <mxPoint x="540" y="400" as="sourcePoint" />
            <mxPoint x="590" y="350" as="targetPoint" />
          </mxGeometry>
        </mxCell>
        <mxCell id="m9pRltskA7oe6K08RGxe-15" value="" style="endArrow=classic;html=1;rounded=0;exitX=0.5;exitY=1;exitDx=0;exitDy=0;entryX=0.5;entryY=0;entryDx=0;entryDy=0;" edge="1" parent="WIyWlLk6GJQsqaUBKTNV-1" source="m9pRltskA7oe6K08RGxe-3" target="m9pRltskA7oe6K08RGxe-6">
          <mxGeometry width="50" height="50" relative="1" as="geometry">
            <mxPoint x="240" y="460" as="sourcePoint" />
            <mxPoint x="290" y="410" as="targetPoint" />
          </mxGeometry>
        </mxCell>
        <mxCell id="m9pRltskA7oe6K08RGxe-16" value="" style="endArrow=classic;html=1;rounded=0;exitX=0.5;exitY=1;exitDx=0;exitDy=0;entryX=0.5;entryY=0;entryDx=0;entryDy=0;" edge="1" parent="WIyWlLk6GJQsqaUBKTNV-1" source="m9pRltskA7oe6K08RGxe-4" target="m9pRltskA7oe6K08RGxe-7">
          <mxGeometry width="50" height="50" relative="1" as="geometry">
            <mxPoint x="390" y="560" as="sourcePoint" />
            <mxPoint x="440" y="510" as="targetPoint" />
          </mxGeometry>
        </mxCell>
        <mxCell id="m9pRltskA7oe6K08RGxe-17" value="" style="endArrow=classic;html=1;rounded=0;exitX=0.5;exitY=1;exitDx=0;exitDy=0;entryX=0.5;entryY=0;entryDx=0;entryDy=0;" edge="1" parent="WIyWlLk6GJQsqaUBKTNV-1" source="m9pRltskA7oe6K08RGxe-5" target="m9pRltskA7oe6K08RGxe-8">
          <mxGeometry width="50" height="50" relative="1" as="geometry">
            <mxPoint x="530" y="480" as="sourcePoint" />
            <mxPoint x="580" y="430" as="targetPoint" />
          </mxGeometry>
        </mxCell>
        <mxCell id="m9pRltskA7oe6K08RGxe-18" value="" style="endArrow=classic;html=1;rounded=0;exitX=0.5;exitY=1;exitDx=0;exitDy=0;entryX=0;entryY=0;entryDx=0;entryDy=0;" edge="1" parent="WIyWlLk6GJQsqaUBKTNV-1" source="m9pRltskA7oe6K08RGxe-6" target="m9pRltskA7oe6K08RGxe-9">
          <mxGeometry width="50" height="50" relative="1" as="geometry">
            <mxPoint x="180" y="670" as="sourcePoint" />
            <mxPoint x="230" y="620" as="targetPoint" />
          </mxGeometry>
        </mxCell>
        <mxCell id="m9pRltskA7oe6K08RGxe-19" value="" style="endArrow=classic;html=1;rounded=0;exitX=0.5;exitY=1;exitDx=0;exitDy=0;entryX=0.5;entryY=0;entryDx=0;entryDy=0;" edge="1" parent="WIyWlLk6GJQsqaUBKTNV-1" source="m9pRltskA7oe6K08RGxe-7" target="m9pRltskA7oe6K08RGxe-9">
          <mxGeometry width="50" height="50" relative="1" as="geometry">
            <mxPoint x="400" y="710" as="sourcePoint" />
            <mxPoint x="450" y="660" as="targetPoint" />
          </mxGeometry>
        </mxCell>
        <mxCell id="m9pRltskA7oe6K08RGxe-20" value="" style="endArrow=classic;html=1;rounded=0;exitX=0.5;exitY=1;exitDx=0;exitDy=0;entryX=1;entryY=0;entryDx=0;entryDy=0;" edge="1" parent="WIyWlLk6GJQsqaUBKTNV-1" source="m9pRltskA7oe6K08RGxe-8" target="m9pRltskA7oe6K08RGxe-9">
          <mxGeometry width="50" height="50" relative="1" as="geometry">
            <mxPoint x="550" y="730" as="sourcePoint" />
            <mxPoint x="600" y="680" as="targetPoint" />
          </mxGeometry>
        </mxCell>
        <mxCell id="m9pRltskA7oe6K08RGxe-21" value="Generált szám tárolása a játék végéig" style="shape=parallelogram;perimeter=parallelogramPerimeter;whiteSpace=wrap;html=1;fixedSize=1;fillColor=#dae8fc;strokeColor=#6c8ebf;" vertex="1" parent="WIyWlLk6GJQsqaUBKTNV-1">
          <mxGeometry x="319" y="880" width="190" height="60" as="geometry" />
        </mxCell>
        <mxCell id="m9pRltskA7oe6K08RGxe-22" value="" style="endArrow=classic;html=1;rounded=0;exitX=0.5;exitY=1;exitDx=0;exitDy=0;entryX=0.5;entryY=0;entryDx=0;entryDy=0;" edge="1" parent="WIyWlLk6GJQsqaUBKTNV-1" source="m9pRltskA7oe6K08RGxe-9" target="m9pRltskA7oe6K08RGxe-21">
          <mxGeometry width="50" height="50" relative="1" as="geometry">
            <mxPoint x="400" y="860" as="sourcePoint" />
            <mxPoint x="450" y="810" as="targetPoint" />
          </mxGeometry>
        </mxCell>
        <mxCell id="m9pRltskA7oe6K08RGxe-23" value="END" style="ellipse;whiteSpace=wrap;html=1;fillColor=#d5e8d4;strokeColor=#82b366;" vertex="1" parent="WIyWlLk6GJQsqaUBKTNV-1">
          <mxGeometry x="354" y="1020" width="120" height="80" as="geometry" />
        </mxCell>
        <mxCell id="m9pRltskA7oe6K08RGxe-24" value="" style="endArrow=classic;html=1;rounded=0;exitX=0.5;exitY=1;exitDx=0;exitDy=0;entryX=0.5;entryY=0;entryDx=0;entryDy=0;" edge="1" parent="WIyWlLk6GJQsqaUBKTNV-1" source="m9pRltskA7oe6K08RGxe-21" target="m9pRltskA7oe6K08RGxe-23">
          <mxGeometry width="50" height="50" relative="1" as="geometry">
            <mxPoint x="400" y="1020" as="sourcePoint" />
            <mxPoint x="450" y="970" as="targetPoint" />
          </mxGeometry>
        </mxCell>
      </root>
    </mxGraphModel>
  </diagram>
</mxfile>
